<?xml version='1.0' encoding='UTF-8'?>
<svg x="0px" y="0px" viewBox="0 0 32 32" version="1.1" xmlns="http://www.w3.org/2000/svg" xmlns:xlink="http://www.w3.org/1999/xlink" xml:space="preserve" id="Layer_1" style="enable-background:new 0 0 32 32">
  <style type="text/css">
	.Yellow{fill:#FFB115;}
	.Red{fill:#D11C1C;}
	.Blue{fill:#1177D7;}
	.Green{fill:#039C23;}
	.Black{fill:#727272;}
	.White{fill:#FFFFFF;}
	.st0{opacity:0.75;}
</style>
  <g id="SinglePageView">
    <path d="M27,0H3C2.4,0,2,0.4,2,1v28c0,0.6,0.4,1,1,1h24c0.6,0,1-0.4,1-1V1C28,0.4,27.6,0,27,0z M26,28H4V2h22V28z" class="Black" />
    <path d="M22,8H8V6h14V8z M22,10H8v2h14V10z M22,14H8v2h14V14z M22,18H8v2h14V18z M22,22H8v2h14V22z" class="Blue" />
  </g>
</svg>