<?xml version='1.0' encoding='UTF-8'?>
<svg x="0px" y="0px" viewBox="0 0 32 32" version="1.1" xmlns="http://www.w3.org/2000/svg" xmlns:xlink="http://www.w3.org/1999/xlink" xml:space="preserve" id="Layer_1" style="enable-background:new 0 0 32 32">
  <style type="text/css">
	.Black{fill:#727272;}
	.Green{fill:#039C23;}
	.Yellow{fill:#FFB115;}
	.Blue{fill:#1177D7;}
	.Red{fill:#D11C1C;}
</style>
  <g id="Walk_1_">
    <path d="M13.5,21.1l-5.3,7.3c-0.3,0.4-0.2,1.1,0.2,1.4c0.4,0.3,1.1,0.2,1.4-0.2l5.1-7L13.5,21.1z" class="Black" />
    <path d="M21.4,23.4L18,20v0v-8c0-1.1-0.9-2-2-2h-1c0,0-0.4,0-0.7,0.3l-4,4c0,0-0.1,0.1-0.1,0.1   c0,0.1-0.1,0.1-0.1,0.2c0,0.1-0.1,0.2-0.1,0.4c0,0,0,0,0,0v4c0,0.5,0.4,1,1,1s1-0.5,1-1v-3.6l2-2V18c0,0,0,0,0,0c0,0.1,0,0.2,0,0.3   c0,0,0,0.1,0,0.1c0,0.1,0,0.2,0.1,0.3c0,0,0,0,0,0.1c0.1,0.2,0.2,0.4,0.4,0.6l5.4,5.4c0,0,0,0.1,0,0.1v4c0,0.5,0.4,1,1,1s1-0.5,1-1   v-4c0,0,0,0,0-0.1C22,24.4,21.8,23.8,21.4,23.4z" class="Black" />
    <path d="M23.7,16.3L20,12.6v2.8l2.3,2.3c0.4,0.4,1,0.4,1.4,0S24.1,16.7,23.7,16.3z" class="Black" />
    <circle cx="17" cy="5" r="3" class="Black" />
  </g>
</svg>